# Blender v2.90.1 OBJ File: 'mixer.blend'
# www.blender.org
mtllib fregadero_manija.mtl
o manija_anim_Cube.019
v -0.018169 0.088799 0.007612
v 0.018169 0.088799 0.007612
v 0.000000 -0.024824 0.012626
v -0.000000 0.126674 0.004289
v -0.000000 -0.024824 -0.012626
v -0.000000 0.126674 -0.004289
v 0.022925 0.050925 0.010217
v -0.022925 0.050925 0.010217
v -0.022925 0.050925 -0.010217
v 0.022925 0.050925 -0.010217
v -0.000000 0.050925 -0.010217
v -0.000000 0.050925 0.010217
v 0.000000 -0.024824 0.012626
v 0.026776 0.017653 0.011446
v 0.004421 -0.024301 0.012618
v 0.008694 -0.022745 0.012591
v 0.012712 -0.020195 0.012548
v 0.016378 -0.016712 0.012489
v 0.019601 -0.012383 0.012416
v 0.022302 -0.007315 0.012331
v 0.024414 -0.001631 0.012235
v 0.025885 0.004527 0.012131
v 0.026679 0.011008 0.011554
v 0.026776 0.017653 -0.011446
v -0.000000 -0.024824 -0.012626
v 0.026679 0.011008 -0.011554
v 0.025885 0.004527 -0.012131
v 0.024414 -0.001631 -0.012235
v 0.022302 -0.007315 -0.012331
v 0.019601 -0.012383 -0.012416
v 0.016378 -0.016712 -0.012489
v 0.012712 -0.020195 -0.012548
v 0.008694 -0.022745 -0.012591
v 0.004421 -0.024301 -0.012618
v -0.026776 0.017653 0.011446
v 0.000000 -0.024824 0.012626
v -0.026679 0.011008 0.011554
v -0.025885 0.004527 0.012131
v -0.024414 -0.001631 0.012235
v -0.022302 -0.007315 0.012331
v -0.019601 -0.012383 0.012416
v -0.016378 -0.016712 0.012489
v -0.012712 -0.020195 0.012548
v -0.008694 -0.022745 0.012591
v -0.004421 -0.024301 0.012618
v -0.000000 -0.024824 -0.012626
v -0.026776 0.017653 -0.011446
v -0.004421 -0.024301 -0.012618
v -0.008694 -0.022745 -0.012591
v -0.012712 -0.020195 -0.012548
v -0.016378 -0.016712 -0.012489
v -0.019601 -0.012383 -0.012416
v -0.022302 -0.007315 -0.012331
v -0.024414 -0.001631 -0.012235
v -0.025885 0.004527 -0.012131
v -0.026679 0.011008 -0.011554
v -0.018169 0.088799 -0.007612
v 0.018169 0.088799 -0.007612
v -0.000000 0.088799 -0.007612
v -0.000000 0.088799 0.007612
v 0.014100 0.122178 0.004620
v 0.010205 0.126674 0.004289
v 0.013766 0.123567 0.004518
v 0.013138 0.124820 0.004425
v 0.012277 0.125815 0.004352
v 0.011266 0.126453 0.004305
v 0.010205 0.126674 -0.004289
v 0.014100 0.122178 -0.004620
v 0.011266 0.126453 -0.004305
v 0.012277 0.125815 -0.004352
v 0.013138 0.124820 -0.004425
v 0.013766 0.123567 -0.004518
v -0.010205 0.126674 0.004289
v -0.014100 0.122178 0.004620
v -0.011266 0.126453 0.004305
v -0.012277 0.125815 0.004352
v -0.013138 0.124820 0.004425
v -0.013766 0.123567 0.004518
v -0.014100 0.122178 -0.004620
v -0.010205 0.126674 -0.004289
v -0.013766 0.123567 -0.004518
v -0.013138 0.124820 -0.004425
v -0.012277 0.125815 -0.004352
v -0.011266 0.126453 -0.004305
vt 0.617581 0.500000
vt 0.621942 0.505530
vt 0.625000 0.530867
vt 0.621942 0.244470
vt 0.619874 0.248610
vt 0.617581 0.250000
vt 0.875000 0.625000
vt 0.625000 0.719133
vt 0.625000 0.625000
vt 0.500000 0.750000
vt 0.445096 1.000000
vt 0.445096 0.750000
vt 0.621942 0.744471
vt 0.619874 0.748610
vt 0.617581 0.750000
vt 0.562500 0.500000
vt 0.562500 0.250000
vt 0.375000 0.625000
vt 0.375863 0.605497
vt 0.382640 0.568646
vt 0.562500 0.750000
vt 0.617581 1.000000
vt 0.562500 1.000000
vt 0.125000 0.625000
vt 0.375000 0.625000
vt 0.125000 0.625000
vt 0.562500 0.000000
vt 0.500000 0.125000
vt 0.500000 0.000000
vt 0.500000 0.625000
vt 0.413273 0.735893
vt 0.125000 0.625000
vt 0.500000 0.250000
vt 0.445096 0.500000
vt 0.445096 0.250000
vt 0.374913 0.644467
vt 0.125087 0.644467
vt 0.125347 0.663280
vt 0.374653 0.663280
vt 0.125774 0.680975
vt 0.374226 0.680975
vt 0.126356 0.697117
vt 0.372921 0.750000
vt 0.127079 0.750000
vt 0.375000 0.752079
vt 0.404523 1.000066
vt 0.375000 0.997921
vt 0.404523 0.749934
vt 0.413631 1.000038
vt 0.413631 0.749962
vt 0.423596 1.000017
vt 0.423596 0.749983
vt 0.434171 1.000004
vt 0.434171 0.749996
vt 0.375000 0.125000
vt 0.375863 0.105497
vt 0.382640 0.068646
vt 0.374913 0.605533
vt 0.375000 0.625000
vt 0.125087 0.605533
vt 0.374653 0.586720
vt 0.125347 0.586720
vt 0.374226 0.569025
vt 0.125774 0.569025
vt 0.373644 0.552883
vt 0.126356 0.552883
vt 0.372921 0.500000
vt 0.375000 0.252079
vt 0.404523 0.500066
vt 0.375000 0.497921
vt 0.404523 0.249934
vt 0.413631 0.500038
vt 0.413631 0.249962
vt 0.423596 0.500017
vt 0.423596 0.249983
vt 0.434171 0.500004
vt 0.434171 0.249996
vt 0.375000 0.125000
vt 0.413273 0.235893
vt 0.500000 0.500000
vt 0.500000 1.000000
vt 0.875000 0.719133
vt 0.624528 0.728919
vt 0.875472 0.728919
vt 0.623158 0.738242
vt 0.625000 1.000000
vt 0.622174 0.749730
vt 0.625000 0.750000
vt 0.622174 1.000270
vt 0.619933 0.749932
vt 0.619933 1.000068
vt 0.617581 0.000000
vt 0.621942 0.005530
vt 0.625000 0.030867
vt 0.875472 0.521081
vt 0.875000 0.530867
vt 0.624528 0.521081
vt 0.876842 0.511758
vt 0.625000 0.500000
vt 0.622174 0.249730
vt 0.625000 0.250000
vt 0.622174 0.500270
vt 0.619933 0.249932
vt 0.619933 0.500068
vt 0.562500 0.625000
vt 0.619874 0.501390
vt 0.623583 0.512367
vt 0.624637 0.521216
vt 0.562500 0.125000
vt 0.625000 0.125000
vt 0.625000 0.219133
vt 0.624637 0.228784
vt 0.623583 0.237633
vt 0.624637 0.728784
vt 0.623583 0.737633
vt 0.378431 0.586566
vt 0.388387 0.552123
vt 0.395531 0.537318
vt 0.403894 0.524531
vt 0.413273 0.514107
vt 0.423435 0.506380
vt 0.434130 0.501616
vt 0.434130 0.748384
vt 0.423435 0.743620
vt 0.403894 0.725469
vt 0.395531 0.712682
vt 0.388387 0.697877
vt 0.382640 0.681354
vt 0.378431 0.663434
vt 0.375863 0.644503
vt 0.373644 0.697117
vt 0.375000 0.125000
vt 0.378431 0.086566
vt 0.388387 0.052123
vt 0.395531 0.037318
vt 0.403894 0.024531
vt 0.413273 0.014107
vt 0.423435 0.006380
vt 0.434130 0.001616
vt 0.445096 0.000000
vt 0.127079 0.500000
vt 0.434130 0.248384
vt 0.423435 0.243620
vt 0.403894 0.225469
vt 0.395531 0.212682
vt 0.388387 0.197877
vt 0.382640 0.181354
vt 0.378431 0.163434
vt 0.375863 0.144503
vt 0.876842 0.738242
vt 0.619874 0.001390
vt 0.623583 0.012367
vt 0.624637 0.021216
vt 0.623158 0.511758
vn 0.0000 0.0734 -0.9973
vn 0.0000 0.0734 0.9973
vn 0.0000 1.0000 0.0000
vn 0.9934 0.1150 0.0000
vn -0.9926 0.1210 0.0000
vn 0.0000 0.0169 -0.9999
vn 0.9926 0.1210 0.0000
vn 0.0000 0.0000 1.0000
vn 0.0000 0.0686 0.9976
vn -0.0142 0.0318 -0.9994
vn -0.9934 0.1150 0.0000
vn 0.1175 -0.9931 0.0000
vn 0.3422 -0.9396 0.0000
vn 0.5359 -0.8443 -0.0000
vn 0.6887 -0.7250 0.0000
vn 0.8021 -0.5972 0.0000
vn 0.8825 -0.4702 0.0000
vn 0.9374 -0.3483 0.0000
vn 0.9726 -0.2323 0.0000
vn 0.9926 -0.1216 0.0000
vn 0.9999 -0.0146 0.0000
vn -0.0000 0.0169 0.9999
vn -0.1175 -0.9931 -0.0000
vn -0.3422 -0.9396 0.0000
vn -0.5359 -0.8443 0.0000
vn -0.6887 -0.7250 0.0000
vn -0.8021 -0.5972 0.0000
vn -0.8825 -0.4702 0.0000
vn -0.9374 -0.3483 0.0000
vn -0.9726 -0.2323 0.0000
vn -0.9926 -0.1216 0.0000
vn -0.9999 -0.0146 0.0000
vn 0.0142 0.0318 0.9994
vn 0.0000 0.0686 -0.9976
vn 0.9922 0.1246 0.0000
vn -0.9922 0.1246 0.0000
vn 0.2031 0.9792 0.0000
vn 0.5341 0.8454 0.0000
vn 0.7558 0.6548 0.0000
vn 0.8940 0.4481 0.0000
vn 0.9724 0.2332 0.0000
vn -0.2031 0.9792 0.0000
vn -0.5341 0.8454 0.0000
vn -0.7558 0.6548 0.0000
vn -0.8940 0.4481 0.0000
vn -0.9724 0.2332 0.0000
vn 0.0000 0.0893 -0.9960
vn -0.0045 0.0874 -0.9962
vn 0.0000 0.0893 0.9960
vn -0.0045 0.0874 0.9962
vn 0.0045 0.0874 -0.9962
vn 0.0306 0.0242 -0.9992
vn -0.0699 0.0800 -0.9943
vn 0.0253 0.0166 -0.9995
vn -0.0000 0.0369 -0.9993
vn 0.0142 0.0318 -0.9994
vn -0.0253 0.0166 -0.9995
vn 0.0699 0.0800 -0.9943
vn -0.0306 0.0242 -0.9992
vn -0.0306 0.0242 0.9992
vn 0.0699 0.0800 0.9943
vn -0.0253 0.0166 0.9995
vn 0.0000 0.0369 0.9993
vn -0.0142 0.0318 0.9994
vn 1.0000 0.0000 -0.0000
vn 0.0253 0.0166 0.9995
vn -0.0699 0.0800 0.9943
vn 0.0306 0.0242 0.9992
vn 0.0045 0.0874 0.9962
usemtl gris
s off
f 79/1/1 82/2/1 80/3/1
f 77/4/2 78/5/2 74/6/2
f 4/7/3 67/8/3 6/9/3
f 10/10/4 14/11/4 24/12/4
f 71/13/1 72/14/1 68/15/1
f 74/6/5 57/16/5 1/17/5
f 5/18/6 48/19/6 50/20/6
f 58/21/7 61/22/7 2/23/7
f 3/24/8 25/25/8 13/26/8
f 2/27/9 12/28/9 7/29/9
f 25/25/10 11/30/10 28/31/10
f 36/32/8 5/18/8 3/24/8
f 8/33/11 47/34/11 35/35/11
f 13/26/12 34/36/12 15/37/12
f 34/36/13 16/38/13 15/37/13
f 33/39/14 17/40/14 16/38/14
f 32/41/15 18/42/15 17/40/15
f 18/42/16 30/43/16 19/44/16
f 30/45/17 20/46/17 19/47/17
f 29/48/18 21/49/18 20/46/18
f 28/50/19 22/51/19 21/49/19
f 27/52/20 23/53/20 22/51/20
f 26/54/21 14/11/21 23/53/21
f 3/55/22 15/56/22 17/57/22
f 36/32/23 48/58/23 46/59/23
f 45/60/24 49/61/24 48/58/24
f 44/62/25 50/63/25 49/61/25
f 43/64/26 51/65/26 50/63/26
f 42/66/27 52/67/27 51/65/27
f 41/68/28 53/69/28 52/70/28
f 40/71/29 54/72/29 53/69/29
f 39/73/30 55/74/30 54/72/30
f 38/75/31 56/76/31 55/74/31
f 37/77/32 47/34/32 56/76/32
f 36/78/33 12/28/33 39/79/33
f 57/16/34 11/30/34 9/80/34
f 58/21/35 7/81/35 10/10/35
f 11/30/34 58/21/34 10/10/34
f 1/17/36 9/80/36 8/33/36
f 12/28/9 1/17/9 8/33/9
f 62/82/37 69/83/37 67/8/37
f 66/84/38 70/85/38 69/83/38
f 65/86/39 71/87/39 70/88/39
f 64/89/40 72/90/40 71/87/40
f 63/91/41 68/15/41 72/90/41
f 61/92/2 64/93/2 62/94/2
f 80/3/42 75/95/42 73/96/42
f 84/97/43 76/98/43 75/95/43
f 83/99/44 77/100/44 76/101/44
f 82/102/45 78/103/45 77/100/45
f 81/104/46 74/6/46 78/103/46
f 73/96/3 6/9/3 80/3/3
f 59/105/47 57/16/47 79/1/47
f 79/1/1 81/106/1 82/2/1
f 82/2/1 83/107/1 80/3/1
f 83/107/1 84/108/1 80/3/1
f 80/3/1 6/9/1 79/1/1
f 6/9/48 59/105/48 79/1/48
f 1/17/49 60/109/49 74/6/49
f 60/109/50 4/110/50 74/6/50
f 4/110/2 73/111/2 74/6/2
f 73/111/2 75/112/2 76/113/2
f 74/6/2 73/111/2 77/4/2
f 76/113/2 77/4/2 73/111/2
f 4/7/3 62/82/3 67/8/3
f 10/10/4 7/81/4 14/11/4
f 58/21/47 59/105/47 68/15/47
f 59/105/51 6/9/51 68/15/51
f 6/9/1 67/8/1 68/15/1
f 67/8/1 69/114/1 70/115/1
f 68/15/1 67/8/1 71/13/1
f 70/115/1 71/13/1 67/8/1
f 74/6/5 79/1/5 57/16/5
f 5/18/8 46/59/8 48/19/8
f 48/19/6 49/116/6 50/20/6
f 50/20/6 51/117/6 5/18/6
f 51/117/6 52/118/6 5/18/6
f 52/118/6 53/119/6 5/18/6
f 53/119/6 54/120/6 5/18/6
f 54/120/52 55/121/52 11/30/52
f 55/121/53 56/122/53 11/30/53
f 56/122/54 47/34/54 11/30/54
f 47/34/55 9/80/55 11/30/55
f 11/30/56 5/18/56 54/120/56
f 58/21/7 68/15/7 61/22/7
f 3/24/8 5/18/8 25/25/8
f 2/27/9 60/109/9 12/28/9
f 25/25/8 5/18/8 11/30/8
f 11/30/55 10/10/55 24/12/55
f 24/12/57 26/123/57 11/30/57
f 26/123/58 27/124/58 11/30/58
f 27/124/59 28/31/59 11/30/59
f 28/31/6 29/125/6 25/25/6
f 29/125/6 30/126/6 25/25/6
f 30/126/6 31/127/6 25/25/6
f 31/127/6 32/128/6 25/25/6
f 32/128/6 33/129/6 34/130/6
f 25/25/6 32/128/6 34/130/6
f 36/32/8 46/59/8 5/18/8
f 8/33/11 9/80/11 47/34/11
f 13/26/12 25/25/12 34/36/12
f 34/36/13 33/39/13 16/38/13
f 33/39/14 32/41/14 17/40/14
f 32/41/15 31/131/15 18/42/15
f 18/42/16 31/131/16 30/43/16
f 30/45/17 29/48/17 20/46/17
f 29/48/18 28/50/18 21/49/18
f 28/50/19 27/52/19 22/51/19
f 27/52/20 26/54/20 23/53/20
f 26/54/21 24/12/21 14/11/21
f 3/55/8 13/132/8 15/56/8
f 15/56/22 16/133/22 17/57/22
f 17/57/22 18/134/22 3/55/22
f 18/134/22 19/135/22 3/55/22
f 19/135/22 20/136/22 3/55/22
f 20/136/22 21/137/22 3/55/22
f 21/137/60 22/138/60 12/28/60
f 22/138/61 23/139/61 12/28/61
f 23/139/62 14/140/62 12/28/62
f 14/140/63 7/29/63 12/28/63
f 12/28/64 3/55/64 21/137/64
f 36/32/23 45/60/23 48/58/23
f 45/60/24 44/62/24 49/61/24
f 44/62/25 43/64/25 50/63/25
f 43/64/26 42/66/26 51/65/26
f 42/66/27 41/141/27 52/67/27
f 41/68/28 40/71/28 53/69/28
f 40/71/29 39/73/29 54/72/29
f 39/73/30 38/75/30 55/74/30
f 38/75/31 37/77/31 56/76/31
f 37/77/32 35/35/32 47/34/32
f 36/78/65 3/55/65 12/28/65
f 12/28/63 8/33/63 35/35/63
f 35/35/66 37/142/66 12/28/66
f 37/142/67 38/143/67 12/28/67
f 38/143/68 39/79/68 12/28/68
f 39/79/22 40/144/22 36/78/22
f 40/144/22 41/145/22 36/78/22
f 41/145/22 42/146/22 36/78/22
f 42/146/22 43/147/22 36/78/22
f 43/147/22 44/148/22 45/149/22
f 36/78/22 43/147/22 45/149/22
f 57/16/34 59/105/34 11/30/34
f 58/21/35 2/23/35 7/81/35
f 11/30/34 59/105/34 58/21/34
f 1/17/36 57/16/36 9/80/36
f 12/28/9 60/109/9 1/17/9
f 62/82/37 66/84/37 69/83/37
f 66/84/38 65/150/38 70/85/38
f 65/86/39 64/89/39 71/87/39
f 64/89/40 63/91/40 72/90/40
f 63/91/41 61/22/41 68/15/41
f 60/109/49 2/27/49 61/92/49
f 61/92/2 63/151/2 64/93/2
f 64/93/2 65/152/2 62/94/2
f 65/152/2 66/153/2 62/94/2
f 62/94/2 4/110/2 61/92/2
f 4/110/69 60/109/69 61/92/69
f 80/3/42 84/97/42 75/95/42
f 84/97/43 83/154/43 76/98/43
f 83/99/44 82/102/44 77/100/44
f 82/102/45 81/104/45 78/103/45
f 81/104/46 79/1/46 74/6/46
f 73/96/3 4/7/3 6/9/3
