# Blender v2.93.0 OBJ File: 'puerta.blend'
# www.blender.org
mtllib puerta.mtl
o puerta_Cube.038
v -0.167137 0.000000 3.699300
v -0.167137 6.391998 3.699300
v -0.167137 0.000000 0.000000
v -0.167137 6.391998 0.000000
v 0.167136 0.000000 3.699300
v 0.167136 6.391998 3.699300
v 0.167136 0.000000 0.000000
v 0.167136 6.391998 0.000000
vt 0.463747 0.003306
vt 0.003306 0.269781
vt 0.003306 0.003306
vt 0.463747 0.269782
vt 0.003306 0.293861
vt 0.463747 0.293861
vt 0.003306 0.560337
vt 0.494438 0.730222
vt 0.470358 0.269786
vt 0.494438 0.269786
vt 0.494438 0.003306
vt 0.470359 0.003306
vt 0.470359 0.996695
vt 0.494438 0.996695
vt 0.463747 0.560336
vt 0.470359 0.730222
vn -1.0000 0.0000 0.0000
vn 0.0000 0.0000 -1.0000
vn 1.0000 0.0000 0.0000
vn 0.0000 0.0000 1.0000
vn 0.0000 -1.0000 0.0000
vn 0.0000 1.0000 0.0000
usemtl Material.001
s off
f 2/1/1 3/2/1 1/3/1
f 4/4/2 7/5/2 3/2/2
f 8/6/3 5/7/3 7/5/3
f 6/8/4 1/9/4 5/10/4
f 7/11/5 1/9/5 3/12/5
f 4/13/6 6/8/6 8/14/6
f 2/1/1 4/4/1 3/2/1
f 4/4/2 8/6/2 7/5/2
f 8/6/3 6/15/3 5/7/3
f 6/8/4 2/16/4 1/9/4
f 7/11/5 5/10/5 1/9/5
f 4/13/6 2/16/6 6/8/6
